<svg width="41" height="41" viewBox="0 0 41 41" fill="none" xmlns="http://www.w3.org/2000/svg">
<path d="M25.2014 25.9249L24.4422 26.724C24.4422 26.724 22.6379 28.6237 17.7129 23.4385C12.7879 18.2534 14.5922 16.3538 14.5922 16.3538L15.0703 15.8506C16.2479 14.6108 16.3589 12.6203 15.3315 11.1672L13.2298 8.19473C11.9582 6.39621 9.50101 6.15863 8.04349 7.69311L5.42749 10.4473C4.70479 11.2081 4.22049 12.1945 4.27923 13.2886C4.42948 16.0878 5.62559 22.1104 12.3 29.1374C19.3779 36.589 26.0191 36.8852 28.7349 36.6172C29.5939 36.5324 30.3409 36.0692 30.9429 35.4354L33.3106 32.9427C34.9087 31.2602 34.4581 28.3757 32.4132 27.1987L29.2291 25.3659C27.8864 24.593 26.2507 24.82 25.2014 25.9249Z" fill="#5898DD"/>
<path d="M29.2747 20.012C33.8771 20.012 37.6081 16.281 37.6081 11.6787C37.6081 7.0763 33.8771 3.34534 29.2747 3.34534C24.6724 3.34534 20.9414 7.0763 20.9414 11.6787C20.9414 13.0117 21.2544 14.2717 21.8109 15.3891C21.9589 15.686 22.0081 16.0254 21.9224 16.3459L21.4261 18.2008C21.2106 19.0062 21.9472 19.7428 22.7526 19.5273L24.6076 19.031C24.9281 18.9453 25.2674 18.9945 25.5644 19.1425C26.6817 19.699 27.9417 20.012 29.2747 20.012Z" fill="#5898DD"/>
</svg>
