<svg width="41" height="41" viewBox="0 0 41 41" fill="none" xmlns="http://www.w3.org/2000/svg">
<path fill-rule="evenodd" clip-rule="evenodd" d="M4.58663 10.6203C4.1333 11.512 4.1333 12.6787 4.1333 15.012V25.012C4.1333 27.3453 4.1333 28.512 4.58663 29.4037C4.98646 30.1875 5.62414 30.8246 6.4083 31.2237C7.29997 31.6787 8.46663 31.6787 10.8 31.6787H30.8C33.1333 31.6787 34.3 31.6787 35.1916 31.2237C35.9752 30.8243 36.6122 30.1872 37.0116 29.4037C37.4666 28.512 37.4666 27.3453 37.4666 25.012V15.012C37.4666 12.6787 37.4666 11.512 37.0116 10.6203C36.6125 9.83618 35.9754 9.1985 35.1916 8.79867C34.3 8.34534 33.1333 8.34534 30.8 8.34534H10.8C8.46663 8.34534 7.29997 8.34534 6.4083 8.79867C5.62389 9.19821 4.98618 9.83593 4.58663 10.6203ZM8.54497 11.6787H33.055C33.2339 11.6785 33.4082 11.7358 33.552 11.8423C33.6957 11.9488 33.8014 12.0988 33.8534 12.27C33.9054 12.4412 33.9008 12.6246 33.8405 12.7931C33.7801 12.9615 33.6672 13.1061 33.5183 13.2053L21.7266 21.092C21.4524 21.2754 21.1299 21.3734 20.8 21.3734C20.47 21.3734 20.1475 21.2754 19.8733 21.092L8.08163 13.2053C7.93276 13.1061 7.81979 12.9615 7.75944 12.7931C7.69909 12.6246 7.69456 12.4412 7.74653 12.27C7.79849 12.0988 7.90419 11.9488 8.04799 11.8423C8.19178 11.7358 8.36603 11.6785 8.54497 11.6787Z" fill="#00B7A6"/>
</svg>
