<svg width="41" height="41" viewBox="0 0 41 41" fill="none" xmlns="http://www.w3.org/2000/svg">
<g clip-path="url(#clip0_43_6346)">
<path d="M6.64549 8.82849H5.12869C2.74971 8.82849 0.820801 10.7573 0.820801 13.1364V34.6425C0.820801 37.0215 2.74971 38.9504 5.12869 38.9504H6.64549C9.02455 38.9504 10.9533 37.0215 10.9533 34.6425V13.1364C10.9533 10.7573 9.02455 8.82849 6.64549 8.82849Z" fill="#FFA801"/>
<path d="M37.8048 14.6538V1.07367H15.8513V14.6538C14.0708 15.5176 12.8354 17.3255 12.8354 19.436V33.3752C12.8354 36.3211 15.2237 38.7094 18.1696 38.7094H35.4866C38.4326 38.7094 40.8208 36.3212 40.8208 33.3752V19.436C40.8207 17.3255 39.5845 15.5176 37.8048 14.6538ZM18.0226 3.24492H35.6336V17.4782H18.0226V3.24492ZM17.7815 25.8141V21.8334H35.8753V25.8141H17.7815ZM33.7776 34.8609C32.4784 34.8609 31.4254 33.8078 31.4254 32.5087C31.4254 31.2096 32.4784 30.1566 33.7776 30.1566C35.0766 30.1566 36.1297 31.2096 36.1297 32.5087C36.1297 33.8078 35.0766 34.8609 33.7776 34.8609Z" fill="#FFA801"/>
<path d="M33.0538 6.99646H20.3882V8.26302H33.0538V6.99646Z" fill="#FFA801"/>
<path d="M28.3494 10.9771H20.3882V12.2437H28.3494V10.9771Z" fill="#FFA801"/>
</g>
<defs>
<clipPath id="clip0_43_6346">
<rect width="40" height="40" fill="white" transform="translate(0.820801 0.0120239)"/>
</clipPath>
</defs>
</svg>
