<svg width="241" height="60" viewBox="0 0 241 60" fill="none" xmlns="http://www.w3.org/2000/svg">
<g clip-path="url(#clip0_88_533)">
<path d="M120.439 59.9489C84.4526 59.9489 48.4695 59.9388 12.4831 59.9658C9.45938 59.9658 6.72319 59.2894 4.34213 57.3818C1.85284 55.3829 0.533784 52.782 0.52702 49.5994C0.499963 37.7076 0.479669 25.8159 0.533784 13.9241C0.560842 8.32658 4.96783 4.08193 11.1505 3.65239C13.5484 3.48667 15.9633 3.62195 18.3714 3.58137C19.0918 3.56784 19.2035 3.9162 19.1865 4.51485C19.1561 5.69523 19.1324 6.879 19.1933 8.056C19.2339 8.86773 18.9024 9.04698 18.1584 9.03684C15.9633 8.99963 13.7649 9.03345 11.5699 9.03345C10.447 9.03345 9.39173 9.2905 8.42443 9.86209C6.85847 10.7854 5.95205 12.1112 5.95205 13.985C5.95543 25.8328 5.9419 37.684 5.96219 49.5318C5.96896 52.3728 8.15723 54.3751 11.3635 54.5915C11.8269 54.622 12.2936 54.6084 12.757 54.6084C84.598 54.6084 156.442 54.6084 228.283 54.6084C232.589 54.6084 235.214 52.0008 235.217 47.6952C235.224 36.6456 235.224 25.5994 235.217 14.5498C235.217 11.286 233.211 9.21271 229.914 9.05036C229.241 9.01654 228.564 9.02669 227.888 9.02669C190.975 9.02669 154.061 9.02669 117.145 9.02331C115.244 9.02331 115.447 9.233 115.481 7.32545C115.501 6.12139 114.936 4.57911 115.734 3.80797C116.472 3.1011 117.99 3.60166 119.164 3.60166C155.614 3.59151 192.064 3.59828 228.513 3.58475C231.936 3.58475 235.028 4.40662 237.554 6.83165C239.573 8.76626 240.639 11.1507 240.645 13.9342C240.669 25.4032 240.676 36.8722 240.645 48.3446C240.632 54.4968 235.163 60.0233 228.764 60.003C192.652 59.8914 156.541 59.9489 120.429 59.9489H120.439Z" fill="white"/>
<path d="M136.071 29.8749C136.071 34.7892 136.082 39.3281 136.065 43.8637C136.061 44.9493 136.528 46.3766 135.882 47.0362C135.172 47.7599 133.724 47.2526 132.601 47.2695C130.078 47.3067 130.078 47.2797 130.078 44.8005C130.078 36.92 130.099 29.0395 130.055 21.159C130.048 20.0903 130.318 19.8501 131.428 19.6945C134.549 19.2549 136.511 20.415 138.267 23.0226C141.108 27.247 144.382 31.1838 147.473 35.2391C147.743 35.5942 148.034 35.9324 148.562 36.5784V34.9245C148.562 30.2876 148.589 25.654 148.542 21.017C148.531 20.0328 148.792 19.6641 149.817 19.7318C151.078 19.8197 152.35 19.7825 153.615 19.7419C154.298 19.7182 154.582 19.8975 154.579 20.6483C154.555 29.2458 154.559 37.8434 154.579 46.4409C154.579 47.1106 154.366 47.3778 153.71 47.2831C153.669 47.2763 153.625 47.2831 153.584 47.2831C150.863 47.3507 148.669 46.2955 147.003 44.1173C143.678 39.7611 140.36 35.4014 137.039 31.0452C136.812 30.7475 136.562 30.4668 136.075 29.8783L136.071 29.8749Z" fill="white"/>
<path d="M103.731 33.6188C103.731 29.4452 103.758 25.275 103.711 21.1014C103.701 20.1002 103.914 19.7147 105.02 19.7248C111.138 19.7789 117.26 19.7722 123.382 19.7282C124.335 19.7214 124.657 19.9852 124.582 20.9322C124.505 21.9368 124.494 22.9616 124.582 23.9627C124.677 25.0179 124.231 25.2242 123.273 25.2141C119.137 25.1701 115.001 25.2175 110.864 25.1769C109.968 25.1667 109.68 25.4475 109.735 26.3268C109.802 27.4193 109.802 28.5219 109.735 29.6109C109.677 30.5343 110.069 30.7406 110.915 30.7304C114.503 30.6932 118.092 30.7406 121.677 30.6966C122.577 30.6865 122.861 30.9773 122.807 31.8533C122.742 32.9018 122.739 33.9638 122.807 35.0123C122.864 35.8917 122.58 36.1656 121.68 36.1521C118.092 36.1047 114.503 36.169 110.918 36.1081C109.954 36.0912 109.664 36.3719 109.728 37.3122C109.809 38.4858 109.792 39.6729 109.731 40.8499C109.691 41.6786 109.981 41.9356 110.813 41.9289C114.99 41.8917 119.171 41.9593 123.348 41.8815C124.511 41.8612 124.826 42.2265 124.704 43.302C124.562 44.5839 125.242 46.2581 124.423 47.0596C123.666 47.8003 122.012 47.2592 120.757 47.2626C115.565 47.2829 110.374 47.2389 105.182 47.2964C104.069 47.3099 103.67 47.0833 103.697 45.8725C103.782 41.7868 103.728 37.6977 103.728 33.6087L103.731 33.6188Z" fill="white"/>
<path d="M17.2317 33.4968C17.2317 29.3638 17.279 25.2308 17.2012 21.1011C17.181 19.941 17.5395 19.6468 18.6285 19.7313C19.8021 19.8226 20.9961 19.8023 22.1731 19.7347C23.0457 19.684 23.3399 19.9478 23.323 20.8542C23.2689 23.7189 23.3433 26.5904 23.279 29.4551C23.2587 30.4089 23.5327 30.6727 24.4831 30.6524C27.4797 30.5915 30.4797 30.605 33.4797 30.6456C34.2644 30.6558 34.491 30.4123 34.4775 29.6411C34.4369 26.7324 34.5045 23.8204 34.4369 20.9151C34.4132 19.9342 34.7379 19.6806 35.6646 19.7347C36.9262 19.8091 38.1979 19.7922 39.4628 19.7381C40.2678 19.7043 40.5553 19.9241 40.5519 20.7866C40.5214 29.2623 40.5248 37.7381 40.5485 46.2138C40.5485 46.9985 40.3963 47.3503 39.5203 47.2995C38.2587 47.2251 36.9837 47.2217 35.7221 47.2995C34.7548 47.3604 34.4132 47.1 34.4403 46.065C34.5147 43.2003 34.4301 40.3288 34.4876 37.4641C34.5045 36.5408 34.2678 36.2229 33.2937 36.2432C30.3377 36.3074 27.3816 36.2973 24.4256 36.2465C23.5293 36.233 23.2757 36.5306 23.2926 37.3999C23.3399 40.3491 23.279 43.3018 23.3298 46.2544C23.3433 47.1067 23.066 47.3333 22.2542 47.2961C20.9487 47.2353 19.633 47.2217 18.3275 47.2995C17.4008 47.357 17.2148 47.0019 17.2215 46.1462C17.2621 41.9286 17.2385 37.7144 17.2385 33.4968H17.2317Z" fill="white"/>
<path d="M73.9577 47.2797C71.9757 47.2797 70.1663 47.2493 68.3534 47.2966C67.6973 47.3135 67.4909 46.9753 67.2914 46.4646C66.7097 44.9765 66.067 43.512 65.5022 42.017C65.2587 41.3744 64.9171 41.114 64.2035 41.1241C60.9126 41.1613 57.6217 41.158 54.3309 41.1241C53.6713 41.1174 53.3568 41.3575 53.1302 41.9595C52.5654 43.4545 51.9092 44.9156 51.341 46.4071C51.1009 47.0396 50.7897 47.3271 50.0592 47.3C48.3748 47.2358 46.6871 47.2797 44.9859 47.2797C44.8506 46.6878 45.2091 46.2786 45.3917 45.8457C48.9599 37.4443 52.5586 29.0565 56.1099 20.6484C56.4583 19.8231 56.8743 19.4612 57.7807 19.5356C59.2046 19.6506 60.8822 19.0486 61.9983 19.7589C63.1178 20.4691 63.2835 22.2245 63.8416 23.53C67.0716 31.0689 70.2813 38.6179 73.4977 46.1636C73.6296 46.468 73.7514 46.7758 73.9611 47.2797H73.9577ZM59.3027 26.8479C58.0918 29.8006 57.0197 32.4387 55.9205 35.0633C55.6837 35.6315 55.8123 35.8141 56.4143 35.8073C58.3117 35.7904 60.2091 35.7904 62.1031 35.8073C62.7796 35.8141 62.8912 35.5976 62.6307 34.9787C61.5451 32.3846 60.4966 29.7735 59.3027 26.8479Z" fill="white"/>
<path d="M199.312 47.2799C201.605 43.9383 203.742 40.8165 205.883 37.6947C206.719 36.4772 207.517 35.2359 208.396 34.0521C208.826 33.4772 208.785 33.0814 208.383 32.4997C205.721 28.6508 203.1 24.7748 200.475 20.8988C200.272 20.5978 199.839 20.2968 200.019 19.9315C200.205 19.5527 200.702 19.7624 201.057 19.7556C202.576 19.7353 204.101 19.8064 205.616 19.7252C206.509 19.6778 206.986 20.0296 207.436 20.7466C209.066 23.3543 210.754 25.9247 212.529 28.6812C213.75 26.821 215.11 25.1739 216.003 23.3002C217.4 20.361 219.466 19.0961 222.676 19.7421C223.437 19.8943 224.536 19.3362 224.895 20.0127C225.165 20.5234 224.245 21.2675 223.826 21.8864C221.577 25.2009 219.351 28.5324 217.014 31.7827C216.27 32.8176 216.192 33.5144 216.973 34.6034C219.649 38.3374 222.189 42.1694 224.78 45.9676C225.03 46.3362 225.256 46.7252 225.595 47.2697C223.264 47.2697 221.13 47.263 218.993 47.2731C218.387 47.2731 218.259 46.759 218.019 46.4005C216.162 43.6034 214.329 40.7894 212.408 37.8605C210.497 40.7522 208.636 43.5087 206.854 46.3159C206.384 47.0566 205.88 47.3238 205.024 47.2934C203.211 47.2325 201.399 47.2731 199.305 47.2731L199.312 47.2799Z" fill="white"/>
<path d="M197.327 47.5125C195.412 47.5125 193.724 47.5058 192.04 47.5159C191.638 47.5159 191.32 47.455 191.08 47.0729C188.239 42.5407 185.384 38.0154 182.536 33.4866C182.499 33.4291 182.533 33.331 182.533 33.1044C183.612 33.1044 184.694 33.1552 185.773 33.0943C188.398 32.9455 189.896 31.3457 189.784 28.8835C189.69 26.7933 188.235 25.4066 185.814 25.295C183.666 25.1969 181.508 25.2814 179.357 25.2442C178.708 25.2341 178.593 25.5216 178.599 26.0796C178.62 28.2273 178.62 30.3784 178.599 32.5261C178.593 33.0266 178.799 33.3987 179.059 33.7944C179.421 34.3457 179.942 34.8057 180.182 35.6749C177.896 35.6749 175.691 35.6783 173.482 35.6749C172.988 35.6749 173.005 35.2927 173.005 34.9511C173.005 30.1484 173.005 25.3423 173.005 20.5396C173.005 20.1439 173.005 19.738 173.563 19.7549C178.741 19.9308 183.957 19.2239 189.094 20.2081C192.848 20.9286 195.361 23.6749 195.832 27.1822C196.451 31.8124 194.901 35.2217 191.208 37.0683C190.342 37.5013 190.586 37.7888 190.978 38.3401C192.98 41.1574 194.959 43.9883 196.941 46.8192C197.056 46.9815 197.137 47.1642 197.327 47.5092V47.5125Z" fill="white"/>
<path d="M72.0839 19.7519C74.0151 19.7519 75.9497 19.7857 77.881 19.735C78.7299 19.7147 78.8043 20.3302 79.0005 20.8545C81.1042 26.4892 83.1944 32.1307 85.2913 37.7688C85.4232 38.1205 85.5653 38.4723 85.7953 39.0608C86.8945 36.1183 87.9193 33.3787 88.9441 30.6357C90.1786 27.3246 91.4334 24.0202 92.6273 20.6955C92.881 19.9886 93.1955 19.6944 93.9734 19.7282C95.4886 19.7925 97.0106 19.7722 98.5292 19.735C99.2496 19.718 99.527 19.8127 99.1989 20.6279C95.6746 29.3235 92.1775 38.0292 88.6938 46.7417C88.4706 47.2998 88.1831 47.5771 87.5845 47.4892C87.5439 47.4824 87.4999 47.4892 87.4593 47.4892C86.0286 47.4621 84.3511 47.8917 83.235 47.2862C82.0985 46.6673 81.9903 44.824 81.4559 43.5083C78.4221 36.0236 75.4153 28.5253 72.4052 21.0269C72.253 20.6481 72.0061 20.2862 72.0873 19.7485L72.0839 19.7519Z" fill="white"/>
<path d="M41.641 6.47643C41.641 4.66358 41.6681 2.85073 41.6275 1.03788C41.6106 0.310707 41.8744 0.0908645 42.5812 0.101011C45.1991 0.131451 47.8203 0.144979 50.4381 0.101011C51.517 0.0807179 51.287 0.790977 51.2802 1.37948C51.2735 1.9646 51.5204 2.7053 50.4448 2.67824C48.7977 2.63427 47.1472 2.72559 45.5035 2.6478C44.4651 2.59707 44.4584 3.15851 44.4753 3.89921C44.4922 4.6027 44.4042 5.2487 45.4764 5.1912C46.8225 5.11679 48.1822 5.23179 49.5283 5.15738C50.57 5.09988 50.455 5.7425 50.4178 6.37497C50.384 6.98038 50.7222 7.79549 49.5418 7.74137C48.1517 7.68049 46.7549 7.76843 45.3614 7.7177C44.181 7.67373 44.5125 8.50236 44.4956 9.10439C44.4787 9.68951 44.2554 10.4065 45.3377 10.3659C47.0254 10.3051 48.7199 10.4133 50.4042 10.3287C51.4967 10.2712 51.3885 10.9071 51.3851 11.6004C51.3817 12.287 51.5102 12.9127 50.411 12.8823C47.7932 12.8079 45.1754 12.8349 42.5576 12.8755C41.8169 12.8857 41.6207 12.6185 41.6342 11.9251C41.6681 10.1123 41.6444 8.29943 41.6444 6.48658L41.641 6.47643Z" fill="white"/>
<path d="M36.4561 6.49424C36.4561 8.30371 36.3952 10.1166 36.4764 11.9227C36.5339 13.1944 35.6816 12.8325 35.0491 12.8392C34.4031 12.846 33.5406 13.1605 33.6421 11.9024C33.73 10.8133 33.6252 9.71409 33.6725 8.62164C33.6996 7.95535 33.4628 7.73551 32.8067 7.75918C31.6703 7.79977 30.5305 7.79977 29.3907 7.75918C28.7244 7.73551 28.5012 7.98241 28.5215 8.63517C28.5587 9.72762 28.4978 10.8268 28.5418 11.9193C28.5688 12.6194 28.349 12.8832 27.615 12.8663C25.2272 12.8122 25.694 13.0388 25.677 11.0568C25.65 7.85727 25.7278 4.65772 25.6398 1.45817C25.6094 0.291311 25.995 0.0376474 27.0705 0.0782336C28.031 0.115438 28.7075 0.135731 28.5519 1.40405C28.4403 2.31724 28.562 3.25411 28.5215 4.18083C28.491 4.87756 28.7244 5.17181 29.4516 5.13799C30.7943 5.07372 32.5057 5.554 33.3817 4.90123C34.2306 4.26538 33.6928 2.45253 33.6218 1.17068C33.5508 -0.124698 34.3422 0.125584 35.066 0.115438C35.8168 0.101909 36.5711 -0.0841114 36.4831 1.19436C36.3614 2.95309 36.4527 4.72874 36.4527 6.49763L36.4561 6.49424Z" fill="white"/>
<path d="M98.0356 6.46028C98.0356 4.65081 98.0897 2.83796 98.0187 1.03187C97.9612 -0.385263 98.9691 0.20662 99.5813 0.132212C100.237 0.0510396 100.958 -0.0538081 100.853 1.07584C100.755 2.11756 100.856 3.17956 100.823 4.23142C100.802 4.84698 100.954 5.16829 101.655 5.14123C102.791 5.09726 103.931 5.09388 105.067 5.14123C105.835 5.17505 105.987 4.80978 105.967 4.15025C105.933 3.14236 106.001 2.1277 105.947 1.11981C105.906 0.348672 106.173 0.101772 106.948 0.0950081C108.821 0.0780971 108.821 0.0375109 108.821 1.87066C108.821 5.19535 108.771 8.52342 108.848 11.8481C108.876 13.042 108.175 12.8898 107.475 12.8425C106.819 12.7985 105.845 13.245 105.947 11.8853C106.018 10.9214 105.886 9.94394 105.98 8.9834C106.082 7.92815 105.642 7.67787 104.688 7.75566C103.809 7.82669 102.909 7.84698 102.037 7.75228C100.975 7.63729 100.724 8.09388 100.819 9.03751C100.887 9.7038 100.833 10.3836 100.833 11.0567C100.833 12.8729 100.336 13.2348 98.5227 12.8628C97.9375 12.7444 98.0458 12.3723 98.0424 12.0172C98.0322 10.1638 98.039 8.31372 98.039 6.46028H98.0356Z" fill="white"/>
<path d="M68.3738 12.8019C68.0018 12.8256 67.7921 12.8492 67.5824 12.8526C65.5091 12.8898 65.4719 12.9034 64.7177 10.9823C64.4234 10.2281 64.0142 9.92366 63.2194 10.0082C62.6782 10.0657 62.1134 10.0826 61.5756 10.0082C59.7459 9.74778 58.3659 10.13 58.0074 12.2235C57.9229 12.7106 57.5678 12.8831 57.074 12.8594C56.4077 12.829 55.7414 12.8526 54.9026 12.8526C55.7008 10.9789 56.4381 9.24384 57.1754 7.51216C58.1292 5.26638 59.1134 3.03076 60.0198 0.764693C60.3073 0.0476693 60.7842 -0.0537964 61.4099 0.0239939C62.0627 0.101784 62.8338 -0.293932 63.2363 0.676756C64.897 4.6745 66.6083 8.65195 68.3705 12.8019H68.3738ZM61.623 3.44C61.2814 4.24835 61.0345 4.81655 60.8011 5.39153C59.844 7.74215 59.8406 7.71847 62.4347 7.55274C63.1382 7.50877 63.2059 7.26188 62.9725 6.7072C62.5531 5.70607 62.1438 4.69818 61.6264 3.44H61.623Z" fill="white"/>
<path d="M88.5551 0.111206C89.9486 0.111206 91.342 0.178849 92.7287 0.0875302C93.7772 0.0198865 93.8043 0.584712 93.7265 1.31865C93.6622 1.94435 94.0816 2.8271 92.8032 2.74931C91.8933 2.6952 90.6825 2.33669 90.1211 2.90828C89.4548 3.58471 89.9215 4.82598 89.8979 5.81696C89.8539 7.75157 89.8065 9.69633 89.9148 11.6242C89.9824 12.8181 89.4311 12.8756 88.501 12.8722C87.5472 12.8688 86.9486 12.8519 87.0027 11.5701C87.1177 9.00636 87.0027 6.43251 87.0534 3.86543C87.0703 3.01312 86.8505 2.59711 85.9373 2.71549C85.5653 2.76284 85.1797 2.72225 84.8009 2.72225C83.0658 2.72225 83.1098 2.72225 83.1369 1.00072C83.1504 0.239729 83.4616 0.0807659 84.1278 0.0942946C85.6025 0.124734 87.0805 0.104441 88.5551 0.104441V0.111206Z" fill="white"/>
<path d="M184.87 43.4952C182.617 43.4952 180.612 43.5358 178.606 43.4749C177.757 43.4512 177.558 43.7387 177.558 44.5471C177.547 47.52 177.514 47.4422 174.541 47.5504C173.225 47.6012 172.894 47.2021 172.971 45.9507C173.083 44.1919 173.025 42.4197 172.988 40.6575C172.971 39.9405 173.12 39.5989 173.945 39.6158C176.553 39.6666 179.164 39.6564 181.775 39.6361C182.35 39.6327 182.702 39.8086 182.983 40.3193C183.541 41.3306 184.16 42.3114 184.87 43.4952Z" fill="white"/>
<path d="M75.2666 5.23542C75.2666 6.53757 75.3275 7.84647 75.2463 9.14523C75.1854 10.1261 75.5608 10.3696 76.4774 10.3256C77.9047 10.2546 79.3421 10.3527 80.7728 10.2952C81.872 10.2512 81.6014 11.0021 81.5913 11.5669C81.5811 12.1182 81.9126 12.8859 80.7999 12.8656C78.3139 12.8217 75.8314 12.8352 73.3455 12.8656C72.7063 12.8724 72.456 12.6898 72.4594 12.0133C72.4864 8.3538 72.4966 4.69766 72.4594 1.03813C72.4458 -0.257248 73.359 0.229787 73.9577 0.182436C74.58 0.135086 75.3478 -0.0746101 75.2869 1.07533C75.2125 2.45865 75.27 3.84873 75.27 5.23881L75.2666 5.23542Z" fill="white"/>
<path d="M165.872 39.636C167.052 39.636 168.236 39.6631 169.417 39.6259C170.066 39.6056 170.306 39.8119 170.296 40.485C170.262 42.5481 170.269 44.6146 170.293 46.6778C170.299 47.246 170.147 47.476 169.518 47.5165C166.45 47.7195 166.403 47.7398 166.457 44.6924C166.474 43.6608 166.146 43.3734 165.175 43.4613C164.337 43.5357 163.488 43.4782 162.645 43.4782C162.476 43.4782 162.297 43.512 162.142 43.4714C160.474 43.0385 161.695 41.7431 161.411 40.8875C161.249 40.3937 161.093 39.5684 162.199 39.6259C163.42 39.6868 164.644 39.6394 165.869 39.6394L165.872 39.636Z" fill="white"/>
<path d="M165.76 35.6989C164.58 35.6989 163.4 35.6684 162.223 35.709C161.556 35.7327 161.38 35.4892 161.357 34.8398C161.262 32.2625 161.238 32.2625 163.795 32.2625C165.554 32.2625 166.433 31.3821 166.433 29.6211C166.433 28.2344 167.147 27.541 168.574 27.541C169.713 27.541 170.282 28.1261 170.282 29.2964C170.282 31.1464 170.259 32.9965 170.292 34.8465C170.306 35.5094 170.079 35.7327 169.423 35.7124C168.202 35.6718 166.981 35.7022 165.76 35.7022V35.6989Z" fill="white"/>
</g>
<defs>
<clipPath id="clip0_88_533">
<rect width="240.173" height="60" fill="white" transform="translate(0.5)"/>
</clipPath>
</defs>
</svg>
