<svg width="145" height="37" viewBox="0 0 145 37" fill="none" xmlns="http://www.w3.org/2000/svg">
<g clip-path="url(#clip0_2043_11)">
<path d="M72.2768 36.7719C50.685 36.7719 29.0951 36.7658 7.50321 36.782C5.68901 36.782 4.04729 36.3762 2.61866 35.2316C1.12508 34.0323 0.33365 32.4718 0.329591 30.5622C0.313356 23.4271 0.301181 16.2921 0.33365 9.157C0.349884 5.79849 2.99408 3.2517 6.70366 2.99398C8.14244 2.89454 9.59137 2.97571 11.0362 2.95136C11.4685 2.94324 11.5355 3.15226 11.5253 3.51145C11.507 4.21968 11.4928 4.92994 11.5294 5.63614C11.5537 6.12318 11.3548 6.23073 10.9084 6.22464C9.59137 6.20232 8.27232 6.22261 6.9553 6.22261C6.28156 6.22261 5.64842 6.37684 5.06804 6.71979C4.12846 7.2738 3.58461 8.06929 3.58461 9.19353C3.58664 16.3022 3.57852 23.4129 3.5907 30.5216C3.59475 32.2262 4.90772 33.4276 6.83151 33.5575C7.10952 33.5757 7.38957 33.5676 7.66759 33.5676C50.7722 33.5676 93.8789 33.5676 136.984 33.5676C139.567 33.5676 141.142 32.003 141.144 29.4197C141.148 22.7899 141.148 16.1622 141.144 9.53242C141.144 7.57413 139.94 6.33017 137.962 6.23276C137.558 6.21247 137.152 6.21855 136.746 6.21855C114.598 6.21855 92.4502 6.21855 70.3003 6.21652C69.1598 6.21652 69.2816 6.34234 69.3019 5.19781C69.314 4.47537 68.9752 3.55001 69.4541 3.08732C69.8965 2.6632 70.8076 2.96354 71.5118 2.96354C93.3817 2.95745 115.252 2.96151 137.121 2.95339C139.175 2.95339 141.03 3.44651 142.546 4.90153C143.757 6.0623 144.397 7.49296 144.401 9.16309C144.415 16.0445 144.419 22.9259 144.401 29.8093C144.393 33.5006 141.111 36.8165 137.272 36.8044C115.605 36.7374 93.9377 36.7719 72.2708 36.7719H72.2768Z" fill="white"/>
<path d="M81.6564 18.7273C81.6564 21.6759 81.6625 24.3992 81.6523 27.1205C81.6503 27.7719 81.9303 28.6283 81.5427 29.024C81.1166 29.4583 80.248 29.1539 79.5743 29.1641C78.0604 29.1864 78.0604 29.1701 78.0604 27.6827C78.0604 22.9544 78.0726 18.2261 78.0462 13.4978C78.0422 12.8565 78.2045 12.7124 78.8701 12.6191C80.7432 12.3553 81.9202 13.0513 82.9734 14.6159C84.678 17.1505 86.6424 19.5126 88.4972 21.9458C88.6595 22.1589 88.834 22.3618 89.1506 22.7494V21.7571C89.1506 18.9749 89.1669 16.1947 89.1384 13.4125C89.1324 12.822 89.2886 12.6008 89.9035 12.6414C90.6604 12.6942 91.4234 12.6718 92.1824 12.6475C92.5923 12.6333 92.7628 12.7408 92.7608 13.1913C92.7466 18.3499 92.7486 23.5084 92.7608 28.6669C92.7608 29.0687 92.6329 29.229 92.2392 29.1722C92.2149 29.1681 92.1885 29.1722 92.1641 29.1722C90.5312 29.2128 89.2149 28.5796 88.2151 27.2727C86.2203 24.659 84.2295 22.0432 82.2368 19.4294C82.1008 19.2509 81.9506 19.0824 81.6584 18.7293L81.6564 18.7273Z" fill="white"/>
<path d="M62.2523 20.9742C62.2523 18.4701 62.2685 15.9679 62.2401 13.4637C62.234 12.8631 62.3618 12.6317 63.0254 12.6378C66.6965 12.6703 70.3695 12.6662 74.0426 12.6398C74.6148 12.6358 74.8076 12.7941 74.763 13.3623C74.7163 13.965 74.7102 14.5799 74.763 15.1805C74.8198 15.8137 74.5519 15.9375 73.9776 15.9314C71.4958 15.905 69.0139 15.9334 66.5321 15.9091C65.9943 15.903 65.8218 16.0714 65.8543 16.599C65.8949 17.2545 65.8949 17.9161 65.8543 18.5695C65.8198 19.1235 66.0552 19.2473 66.5625 19.2412C68.7156 19.2189 70.8687 19.2473 73.0198 19.2209C73.5596 19.2148 73.7301 19.3893 73.6976 19.9149C73.659 20.544 73.657 21.1812 73.6976 21.8103C73.7321 22.3379 73.5616 22.5023 73.0218 22.4942C70.8687 22.4658 68.7156 22.5043 66.5646 22.4678C65.9862 22.4577 65.8117 22.6261 65.8502 23.1902C65.8989 23.8944 65.8888 24.6067 65.8523 25.3129C65.8279 25.8101 66.0024 25.9643 66.5016 25.9602C69.0078 25.9379 71.5161 25.9785 74.0223 25.9318C74.7204 25.9197 74.9091 26.1388 74.836 26.7842C74.7508 27.5533 75.1587 28.5578 74.6676 29.0387C74.213 29.4831 73.2207 29.1584 72.4678 29.1605C69.3528 29.1727 66.2378 29.1463 63.1228 29.1808C62.4552 29.1889 62.2157 29.0529 62.232 28.3264C62.2827 25.875 62.2502 23.4216 62.2502 20.9681L62.2523 20.9742Z" fill="white"/>
<path d="M10.3525 20.9012C10.3525 18.4214 10.3809 15.9416 10.3342 13.4638C10.322 12.7677 10.5372 12.5912 11.1906 12.6419C11.8948 12.6967 12.6111 12.6845 13.3173 12.6439C13.8409 12.6135 14.0174 12.7718 14.0073 13.3156C13.9748 15.0345 14.0195 16.7574 13.9809 18.4762C13.9687 19.0485 14.1331 19.2067 14.7033 19.1946C16.5013 19.158 18.3013 19.1662 20.1013 19.1905C20.5721 19.1966 20.7081 19.0505 20.7 18.5878C20.6756 16.8426 20.7162 15.0954 20.6756 13.3522C20.6614 12.7637 20.8562 12.6115 21.4122 12.6439C22.1692 12.6886 22.9322 12.6784 23.6912 12.646C24.1741 12.6257 24.3466 12.7576 24.3446 13.2751C24.3263 18.3605 24.3284 23.446 24.3426 28.5314C24.3426 29.0022 24.2513 29.2133 23.7257 29.1828C22.9687 29.1382 22.2037 29.1362 21.4467 29.1828C20.8664 29.2194 20.6614 29.0631 20.6776 28.4421C20.7223 26.7233 20.6715 25.0004 20.706 23.2816C20.7162 22.7276 20.5741 22.5368 19.9897 22.549C18.2161 22.5876 16.4425 22.5815 14.6688 22.551C14.1311 22.5429 13.9789 22.7215 13.989 23.243C14.0174 25.0126 13.9809 26.7842 14.0113 28.5558C14.0195 29.0672 13.8531 29.2031 13.366 29.1808C12.5827 29.1443 11.7933 29.1362 11.01 29.1828C10.454 29.2173 10.3423 29.0043 10.3464 28.4908C10.3708 25.9603 10.3565 23.4318 10.3565 20.9012H10.3525Z" fill="white"/>
<path d="M44.388 29.1704C43.1989 29.1704 42.1132 29.1521 41.0255 29.1805C40.6318 29.1907 40.508 28.9877 40.3883 28.6813C40.0392 27.7884 39.6537 26.9097 39.3148 26.0128C39.1687 25.6272 38.9637 25.4709 38.5355 25.477C36.561 25.4993 34.5865 25.4973 32.6119 25.477C32.2162 25.473 32.0275 25.617 31.8915 25.9783C31.5526 26.8752 31.159 27.7519 30.818 28.6468C30.6739 29.0263 30.4873 29.1988 30.0489 29.1826C29.0383 29.144 28.0257 29.1704 27.005 29.1704C26.9238 28.8152 27.1389 28.5697 27.2485 28.3099C29.3894 23.2691 31.5486 18.2364 33.6794 13.1916C33.8884 12.6964 34.138 12.4793 34.6818 12.5239C35.5362 12.5929 36.5427 12.2317 37.2124 12.6579C37.8841 13.084 37.9835 14.1372 38.3184 14.9205C40.2564 19.4439 42.1822 23.9733 44.1121 28.5007C44.1912 28.6833 44.2643 28.868 44.3901 29.1704H44.388ZM35.595 16.9113C34.8685 18.6829 34.2252 20.2658 33.5657 21.8405C33.4237 22.1814 33.5008 22.291 33.862 22.2869C35.0004 22.2768 36.1389 22.2768 37.2753 22.2869C37.6812 22.291 37.7481 22.1611 37.5919 21.7898C36.9405 20.2333 36.3114 18.6667 35.595 16.9113Z" fill="white"/>
<path d="M119.6 29.1705C120.976 27.1655 122.259 25.2924 123.543 23.4194C124.045 22.6888 124.524 21.9441 125.051 21.2338C125.309 20.8888 125.285 20.6514 125.043 20.3024C123.446 17.993 121.873 15.6674 120.299 13.3418C120.177 13.1612 119.917 12.9806 120.025 12.7614C120.136 12.5342 120.435 12.66 120.648 12.6559C121.559 12.6437 122.474 12.6864 123.383 12.6377C123.919 12.6092 124.205 12.8203 124.475 13.2505C125.453 14.8151 126.466 16.3574 127.531 18.0113C128.264 16.8951 129.079 15.9069 129.615 14.7826C130.453 13.0192 131.693 12.2602 133.619 12.6478C134.076 12.7391 134.735 12.4043 134.95 12.8101C135.113 13.1166 134.561 13.563 134.309 13.9344C132.959 15.9231 131.624 17.922 130.222 19.8721C129.775 20.4931 129.729 20.9112 130.198 21.5646C131.803 23.805 133.327 26.1042 134.881 28.3831C135.031 28.6043 135.167 28.8377 135.37 29.1644C133.972 29.1644 132.692 29.1603 131.409 29.1664C131.046 29.1664 130.969 28.8579 130.825 28.6428C129.711 26.9646 128.611 25.2762 127.458 23.5188C126.311 25.2539 125.195 26.9078 124.126 28.5921C123.844 29.0365 123.541 29.1968 123.028 29.1786C121.94 29.1421 120.853 29.1664 119.596 29.1664L119.6 29.1705Z" fill="white"/>
<path d="M118.409 29.3108C117.261 29.3108 116.248 29.3068 115.237 29.3129C114.996 29.3129 114.805 29.2764 114.661 29.047C112.956 26.3278 111.244 23.6125 109.535 20.8953C109.513 20.8608 109.533 20.8019 109.533 20.666C110.18 20.666 110.83 20.6964 111.477 20.6599C113.052 20.5706 113.951 19.6107 113.884 18.1334C113.827 16.8793 112.954 16.0473 111.501 15.9803C110.213 15.9214 108.918 15.9722 107.627 15.9499C107.238 15.9438 107.169 16.1163 107.173 16.4511C107.185 17.7397 107.185 19.0304 107.173 20.319C107.169 20.6193 107.293 20.8425 107.449 21.08C107.666 21.4107 107.979 21.6867 108.123 22.2083C106.751 22.2083 105.428 22.2103 104.103 22.2083C103.806 22.2083 103.816 21.9789 103.816 21.774C103.816 18.8924 103.816 16.0087 103.816 13.1271C103.816 12.8897 103.816 12.6461 104.151 12.6563C107.258 12.7618 110.387 12.3377 113.47 12.9282C115.722 13.3605 117.23 15.0083 117.512 17.1127C117.884 19.8908 116.954 21.9363 114.738 23.0443C114.219 23.3041 114.365 23.4766 114.6 23.8074C115.802 25.4978 116.989 27.1963 118.178 28.8948C118.247 28.9922 118.296 29.1018 118.409 29.3088V29.3108Z" fill="white"/>
<path d="M43.2639 12.6535C44.4226 12.6535 45.5834 12.6738 46.7421 12.6433C47.2515 12.6311 47.2961 13.0005 47.4138 13.315C48.6761 16.6959 49.9302 20.0807 51.1884 23.4636C51.2675 23.6747 51.3527 23.8857 51.4907 24.2388C52.1503 22.4733 52.7651 20.8296 53.38 19.1838C54.1207 17.1971 54.8736 15.2145 55.59 13.2196C55.7422 12.7955 55.9309 12.619 56.3976 12.6393C57.3067 12.6778 58.2199 12.6656 59.1311 12.6433C59.5633 12.6332 59.7297 12.69 59.5329 13.1791C57.4184 18.3964 55.3201 23.6199 53.2299 28.8474C53.0959 29.1822 52.9234 29.3486 52.5642 29.2959C52.5399 29.2918 52.5135 29.2959 52.4892 29.2959C51.6308 29.2796 50.6242 29.5373 49.9545 29.1741C49.2727 28.8027 49.2078 27.6968 48.8871 26.9074C47.0668 22.4165 45.2628 17.9175 43.4567 13.4185C43.3654 13.1912 43.2172 12.9741 43.2659 12.6514L43.2639 12.6535Z" fill="white"/>
<path d="M24.9981 4.68879C24.9981 3.60108 25.0143 2.51337 24.99 1.42566C24.9798 0.989354 25.1381 0.857448 25.5622 0.863536C27.1329 0.8818 28.7056 0.889917 30.2763 0.863536C30.9237 0.85136 30.7857 1.27752 30.7816 1.63062C30.7776 1.98169 30.9257 2.42611 30.2804 2.40987C29.2921 2.38349 28.3018 2.43828 27.3155 2.39161C26.6926 2.36117 26.6885 2.69803 26.6986 3.14245C26.7088 3.56455 26.656 3.95215 27.2993 3.91765C28.107 3.87301 28.9228 3.942 29.7304 3.89736C30.3555 3.86286 30.2865 4.24843 30.2641 4.62791C30.2438 4.99116 30.4468 5.48022 29.7385 5.44775C28.9045 5.41123 28.0664 5.46399 27.2303 5.43355C26.5221 5.40717 26.721 5.90435 26.7108 6.26557C26.7007 6.61664 26.5667 7.04685 27.2161 7.0225C28.2287 6.98597 29.2454 7.05091 30.256 7.00018C30.9115 6.96568 30.8466 7.34719 30.8445 7.7632C30.8425 8.17515 30.9196 8.55057 30.2601 8.53231C28.6894 8.48766 27.1187 8.5039 25.548 8.52825C25.1036 8.53434 24.9859 8.37402 24.994 7.95801C25.0143 6.8703 25.0001 5.78259 25.0001 4.69488L24.9981 4.68879Z" fill="white"/>
<path d="M21.8872 4.69869C21.8872 5.78438 21.8507 6.87209 21.8994 7.95574C21.9339 8.71876 21.4225 8.50163 21.043 8.50569C20.6554 8.50974 20.138 8.69847 20.1988 7.94357C20.2516 7.29013 20.1887 6.6306 20.2171 5.97513C20.2333 5.57536 20.0913 5.44345 19.6976 5.45766C19.0157 5.48201 18.3319 5.48201 17.648 5.45766C17.2482 5.44345 17.1143 5.59159 17.1265 5.98325C17.1488 6.63872 17.1122 7.29824 17.1386 7.95371C17.1549 8.37378 17.023 8.53207 16.5826 8.52192C15.1499 8.48945 15.4299 8.62541 15.4198 7.43624C15.4036 5.51651 15.4502 3.59678 15.3975 1.67705C15.3792 0.976935 15.6106 0.824737 16.2559 0.849089C16.8322 0.871411 17.2381 0.883587 17.1447 1.64458C17.0777 2.19249 17.1508 2.75461 17.1265 3.31064C17.1082 3.72868 17.2482 3.90523 17.6845 3.88494C18.4902 3.84638 19.517 4.13455 20.0426 3.74289C20.5519 3.36138 20.2293 2.27367 20.1867 1.50456C20.144 0.72733 20.6189 0.877499 21.0532 0.871411C21.5037 0.863294 21.9562 0.751682 21.9035 1.51876C21.8304 2.574 21.8852 3.63939 21.8852 4.70072L21.8872 4.69869Z" fill="white"/>
<path d="M58.8348 4.6791C58.8348 3.59342 58.8673 2.50571 58.8247 1.42205C58.7902 0.571772 59.3949 0.926902 59.7622 0.882257C60.1559 0.833553 60.5881 0.770645 60.5252 1.44844C60.4664 2.07346 60.5273 2.71067 60.507 3.34178C60.4948 3.71112 60.5861 3.9039 61.0062 3.88767C61.688 3.86129 62.3719 3.85926 63.0537 3.88767C63.5144 3.90796 63.6057 3.6888 63.5935 3.29308C63.5732 2.68835 63.6138 2.07955 63.5814 1.47482C63.557 1.01213 63.7173 0.863993 64.182 0.859935C65.3063 0.849788 65.3063 0.825436 65.3063 1.92532C65.3063 3.92014 65.2758 5.91698 65.3225 7.9118C65.3388 8.62814 64.9187 8.53683 64.4986 8.50841C64.1049 8.48203 63.5205 8.7499 63.5814 7.93412C63.624 7.35576 63.5448 6.76929 63.6017 6.19297C63.6625 5.55982 63.3987 5.40965 62.8265 5.45633C62.2988 5.49894 61.759 5.51112 61.2355 5.4543C60.5983 5.3853 60.4481 5.65926 60.5049 6.22544C60.5455 6.62521 60.513 7.0331 60.513 7.43694C60.513 8.52668 60.2147 8.74381 59.127 8.52059C58.776 8.44956 58.8409 8.22634 58.8389 8.01326C58.8328 6.9012 58.8368 5.79116 58.8368 4.6791H58.8348Z" fill="white"/>
<path d="M41.0378 8.48368C40.8146 8.49788 40.6888 8.51209 40.563 8.51412C39.319 8.53644 39.2967 8.54456 38.8441 7.39191C38.6676 6.93937 38.422 6.75673 37.9452 6.80747C37.6205 6.84196 37.2816 6.85211 36.9589 6.80747C35.8611 6.65121 35.0331 6.88052 34.818 8.13667C34.7673 8.42889 34.5542 8.53238 34.2579 8.51818C33.8581 8.49991 33.4583 8.51412 32.9551 8.51412C33.434 7.38988 33.8764 6.34884 34.3188 5.30983C34.891 3.96237 35.4816 2.62099 36.0254 1.26135C36.1979 0.831141 36.4841 0.770261 36.8595 0.816935C37.2511 0.86361 37.7138 0.62618 37.9553 1.20859C38.9517 3.60724 39.9785 5.99371 41.0358 8.48368H41.0378ZM36.9873 2.86654C36.7824 3.35155 36.6342 3.69247 36.4942 4.03745C35.9199 5.44783 35.9179 5.43362 37.4744 5.33419C37.8965 5.3078 37.937 5.15966 37.797 4.82686C37.5454 4.22618 37.2998 3.62145 36.9893 2.86654H36.9873Z" fill="white"/>
<path d="M53.1466 0.870044C53.9826 0.870044 54.8187 0.91063 55.6507 0.855838C56.2798 0.815252 56.296 1.15415 56.2494 1.59451C56.2108 1.96993 56.4625 2.49958 55.6954 2.45291C55.1495 2.42044 54.423 2.20533 54.0861 2.54829C53.6864 2.95415 53.9664 3.69891 53.9522 4.29349C53.9258 5.45426 53.8974 6.62112 53.9623 7.77782C54.0029 8.49417 53.6721 8.52867 53.1141 8.52664C52.5418 8.52461 52.1826 8.51447 52.2151 7.74536C52.2841 6.20714 52.2151 4.66283 52.2455 3.12258C52.2557 2.61119 52.1238 2.36159 51.5759 2.43261C51.3526 2.46102 51.1213 2.43667 50.894 2.43667C49.853 2.43667 49.8794 2.43667 49.8956 1.40375C49.9037 0.947158 50.0904 0.85178 50.4902 0.859897C51.375 0.878161 52.2618 0.865985 53.1466 0.865985V0.870044Z" fill="white"/>
<path d="M110.935 26.8993C109.584 26.8993 108.38 26.9236 107.177 26.8871C106.668 26.8729 106.548 27.0454 106.548 27.5304C106.542 29.3142 106.522 29.2675 104.738 29.3324C103.948 29.3629 103.75 29.1234 103.796 28.3726C103.863 27.3173 103.829 26.2539 103.806 25.1967C103.796 24.7665 103.885 24.5615 104.381 24.5716C105.945 24.6021 107.512 24.596 109.078 24.5838C109.423 24.5818 109.635 24.6873 109.803 24.9937C110.138 25.6005 110.509 26.189 110.935 26.8993Z" fill="white"/>
<path d="M45.1734 3.94457C45.1734 4.72586 45.21 5.5112 45.1613 6.29046C45.1247 6.87896 45.35 7.02507 45.8999 6.99869C46.7563 6.95607 47.6188 7.01493 48.4772 6.98043C49.1367 6.95405 48.9743 7.40455 48.9682 7.74345C48.9622 8.07423 49.161 8.53488 48.4934 8.5227C47.0018 8.49632 45.5123 8.50444 44.0208 8.5227C43.6372 8.52676 43.4871 8.41718 43.4891 8.01132C43.5053 5.8156 43.5114 3.62191 43.4891 1.4262C43.481 0.648971 44.0289 0.941192 44.3881 0.912782C44.7615 0.884372 45.2221 0.758554 45.1856 1.44852C45.141 2.27851 45.1755 3.11256 45.1755 3.9466L45.1734 3.94457Z" fill="white"/>
<path d="M99.5367 24.584C100.245 24.584 100.955 24.6002 101.663 24.5779C102.053 24.5657 102.197 24.6895 102.191 25.0933C102.171 26.3312 102.175 27.5711 102.189 28.809C102.193 29.1499 102.102 29.2879 101.724 29.3123C99.8837 29.434 99.8553 29.4462 99.8878 27.6178C99.8979 26.9989 99.7011 26.8264 99.1187 26.8791C98.6154 26.9238 98.106 26.8893 97.6008 26.8893C97.4993 26.8893 97.3917 26.9096 97.2984 26.8852C96.2979 26.6255 97.0305 25.8482 96.8601 25.3348C96.7626 25.0385 96.6693 24.5434 97.3329 24.5779C98.0655 24.6144 98.8001 24.586 99.5347 24.586L99.5367 24.584Z" fill="white"/>
<path d="M99.4696 22.2219C98.7614 22.2219 98.0532 22.2036 97.347 22.2279C96.9472 22.2421 96.8417 22.096 96.8275 21.7064C96.7706 20.1601 96.7564 20.1601 98.2906 20.1601C99.3458 20.1601 99.8735 19.6318 99.8735 18.5752C99.8735 17.7432 100.302 17.3271 101.158 17.3271C101.841 17.3271 102.183 17.6782 102.183 18.3804C102.183 19.4904 102.169 20.6004 102.189 21.7105C102.197 22.1082 102.061 22.2421 101.667 22.23C100.935 22.2056 100.202 22.2239 99.4696 22.2239V22.2219Z" fill="white"/>
</g>
<defs>
<clipPath id="clip0_2043_11">
<rect width="144.104" height="36" fill="white" transform="translate(0.313477 0.802734)"/>
</clipPath>
</defs>
</svg>
