<svg width="81" height="81" viewBox="0 0 81 81" fill="none" xmlns="http://www.w3.org/2000/svg">
<g clip-path="url(#clip0_54_6674)">
<path d="M60.7937 44.8798L70.3937 39.2031L67.3004 37.3798L70.577 35.4398L76.9437 39.1998L65.0637 46.2264C63.6773 45.6677 62.2497 45.2175 60.7937 44.8798ZM27.7037 65.6731L26.8704 64.6298C26.5875 64.2654 26.3844 63.8456 26.2742 63.3977C26.1639 62.9498 26.149 62.4838 26.2304 62.0298L10.1637 52.5298L13.2537 50.7064L9.97702 48.7664L3.61035 52.5264L29.737 67.9798C29.0312 67.236 28.353 66.4666 27.7037 65.6731ZM40.2804 47.5498L3.61035 25.8598L40.277 4.21643L76.9437 25.8664L40.2804 47.5498ZM10.1637 25.8631L40.277 43.6764L70.387 25.8698L40.277 8.08643L10.1637 25.8631ZM33.8637 53.2131L10.1637 39.1964L13.2537 37.3731L9.97702 35.4331L3.61035 39.1931L31.277 55.5598C32.0337 54.8198 32.9004 54.0298 33.8603 53.2131H33.8637ZM79.5104 63.5664L80.277 62.5498L79.5104 61.5331C79.077 60.9631 68.587 47.5498 55.277 47.5498C41.9804 47.5498 31.5403 60.9398 31.0937 61.5098L30.277 62.5498L31.0937 63.5898C31.5403 64.1564 41.977 77.5498 55.277 77.5498C68.587 77.5498 79.077 64.1364 79.5104 63.5664ZM55.277 50.5498C65.2603 50.5498 74.0037 59.4564 76.6737 62.5498C74.0104 65.6498 65.2803 74.5498 55.277 74.5498C45.3037 74.5498 36.727 65.6731 33.9437 62.5498C36.727 59.4264 45.3037 50.5498 55.277 50.5498ZM63.277 62.5498C63.277 60.9675 62.8078 59.4208 61.9288 58.1052C61.0497 56.7896 59.8003 55.7642 58.3385 55.1587C56.8767 54.5532 55.2681 54.3948 53.7163 54.7035C52.1644 55.0122 50.739 55.7741 49.6202 56.8929C48.5013 58.0117 47.7394 59.4372 47.4307 60.989C47.1221 62.5409 47.2805 64.1494 47.886 65.6112C48.4915 67.073 49.5169 68.3225 50.8325 69.2015C52.148 70.0806 53.6948 70.5498 55.277 70.5498C57.3979 70.5471 59.4312 69.7034 60.931 68.2037C62.4307 66.704 63.2744 64.6707 63.277 62.5498Z" fill="url(#paint0_linear_54_6674)"/>
</g>
<defs>
<linearGradient id="paint0_linear_54_6674" x1="3.61035" y1="40.8831" x2="80.277" y2="40.8831" gradientUnits="userSpaceOnUse">
<stop stop-color="#A8CF2D"/>
<stop offset="1"/>
</linearGradient>
<clipPath id="clip0_54_6674">
<rect width="80" height="80" fill="white" transform="translate(0.277344 0.883057)"/>
</clipPath>
</defs>
</svg>
