<svg width="83" height="83" viewBox="0 0 83 83" fill="none" xmlns="http://www.w3.org/2000/svg">
<rect x="0.0253906" y="0.666992" width="82" height="82" rx="41" fill="#F3FAE2"/>
<g clip-path="url(#clip0_2131_9)">
<path d="M58.1665 53.7876L58.1391 53.7705C57.9693 53.6541 57.8246 53.5049 57.7134 53.3316C57.6023 53.1584 57.5269 52.9647 57.4918 52.7619C57.4566 52.5591 57.4625 52.3513 57.5089 52.1508C57.5553 51.9503 57.6414 51.7611 57.7621 51.5944C60.1081 47.5175 60.8848 42.7243 59.9463 38.1151C59.0078 33.506 56.4188 29.3981 52.6655 26.5631C48.9121 23.7281 44.2529 22.361 39.5628 22.7186C34.8727 23.0762 30.4746 25.134 27.1945 28.5053C23.9145 31.8767 21.9782 36.3296 21.7494 41.0278C21.5207 45.7259 23.0151 50.3459 25.9521 54.02C28.8891 57.6941 33.0665 60.1694 37.6997 60.981C42.3328 61.7926 47.1029 60.8847 51.1139 58.4277C51.7993 58.0062 52.6903 58.1878 53.1597 58.8389L53.1666 58.8423C53.2792 58.9984 53.3589 59.1757 53.4012 59.3634C53.4434 59.5512 53.4472 59.7455 53.4123 59.9348C53.3774 60.124 53.3045 60.3042 53.1981 60.4645C53.0917 60.6249 52.9539 60.762 52.7931 60.8677L52.5052 61.0561C47.8486 63.8557 42.3293 64.8567 36.9862 63.8708C31.643 62.8849 26.8444 59.9801 23.4935 55.7031C20.1427 51.426 18.4706 46.0717 18.792 40.6479C19.1134 35.2241 21.4061 30.1047 25.2386 26.2533C29.0711 22.402 34.1792 20.0842 39.6014 19.7362C45.0236 19.3882 50.386 21.034 54.6794 24.3639C58.9728 27.6938 61.9011 32.4781 62.9132 37.8163C63.9253 43.1546 62.9513 48.6787 60.1747 53.349C60.0763 53.5148 59.9449 53.6586 59.7886 53.7715C59.6322 53.8844 59.4544 53.9639 59.266 54.005C59.0776 54.0461 58.8828 54.0481 58.6936 54.0107C58.5045 53.9733 58.325 53.8974 58.1665 53.7876ZM32.9786 35.104C33.3144 34.7716 34.1369 34.6516 34.5378 35.104C35.0347 35.6283 34.8736 36.485 34.5378 36.8449L29.3529 41.8825L34.411 46.6733C34.7468 47.0057 34.7914 47.955 34.411 48.3319C33.9518 48.7877 33.0128 48.7158 32.701 48.4039L26.7895 42.513C26.629 42.3513 26.5389 42.1326 26.5389 41.9047C26.5389 41.6769 26.629 41.4582 26.7895 41.2965L32.9786 35.1074V35.104ZM49.0714 35.104L55.2605 41.293C55.421 41.4548 55.511 41.6734 55.511 41.9013C55.511 42.1292 55.421 42.3478 55.2605 42.5096L49.3524 48.4073C49.0406 48.7158 48.153 48.9111 47.639 48.4073C47.1558 47.9276 47.3066 46.9406 47.639 46.6082L52.7177 41.8893L47.4745 36.7969C47.1386 36.4371 47.029 35.5495 47.4745 35.1074C47.9097 34.679 48.7356 34.775 49.0714 35.1074V35.104ZM42.7179 33.8703C42.8858 33.4248 43.7186 33.1438 44.2497 33.3425C44.7569 33.531 45.0551 34.2335 44.918 34.679L39.2978 50.1345C39.1333 50.58 38.3314 50.7582 37.8825 50.5903C37.4061 50.4258 36.8887 49.7678 37.06 49.3258L42.7145 33.8703H42.7179Z" fill="#97B830"/>
</g>
<defs>
<clipPath id="clip0_2131_9">
<rect width="48" height="45" fill="white" transform="translate(17.0254 19.667)"/>
</clipPath>
</defs>
</svg>
