<svg width="81" height="81" viewBox="0 0 81 81" fill="none" xmlns="http://www.w3.org/2000/svg">
<g clip-path="url(#clip0_54_6618)">
<path d="M68.072 50.6783C60.7591 48.3194 51.0602 47.0201 40.7614 47.0201C30.4625 47.0201 20.7634 48.3192 13.4506 50.6783C5.59531 53.2123 1.36719 56.6211 1.36719 60.5358C1.36719 60.739 1.36719 66.6795 1.36719 66.6795C1.36719 70.5808 5.665 73.9794 13.4841 76.5078C20.7764 78.8659 30.4605 80.1647 40.7523 80.1647C51.0442 80.1647 60.7283 78.8659 68.0208 76.5078C75.8397 73.9794 80.1286 70.5658 80.1284 66.6795C80.1284 66.6795 80.1284 60.7458 80.1284 60.5358C80.1283 56.6211 75.9275 53.2123 68.072 50.6783ZM77.5759 66.6794C77.5759 69.3217 73.7281 72.1434 67.283 74.2276C60.2225 76.5109 50.8002 77.7683 40.752 77.7683C30.7039 77.7683 21.2816 76.5108 14.2211 74.2276C7.77609 72.1434 3.92812 69.3219 3.92812 66.668L3.91672 65.4697C5.92141 67.3351 9.1225 68.9972 13.4505 70.3934C20.7633 72.7523 30.4623 74.0515 40.7612 74.0515C51.06 74.0515 60.7592 72.7525 68.0719 70.3934C72.3892 69.0008 75.5852 67.3434 77.5908 65.4836L77.5759 66.6794ZM67.3177 68.0548C60.242 70.3373 50.8109 71.5942 40.7612 71.5942C30.7116 71.5942 21.2803 70.3372 14.2048 68.0548C7.75234 65.9733 3.90016 63.1625 3.90016 60.5359C3.90016 57.9094 7.75234 55.0986 14.2048 53.0172C21.2803 50.7347 30.7116 49.4778 40.7612 49.4778C50.8109 49.4778 60.2419 50.7348 67.3177 53.0172C73.7702 55.0986 77.6223 57.9094 77.6223 60.5359C77.6223 63.1623 73.7702 65.9733 67.3177 68.0548Z" fill="url(#paint0_linear_54_6618)"/>
<path d="M61.0553 54.134C55.6194 52.7159 48.4125 51.9349 40.7622 51.9349C33.1119 51.9349 25.9052 52.7157 20.4691 54.134C14.3673 55.7257 11.2734 57.8796 11.2734 60.5359C11.2734 63.1921 14.3673 65.3459 20.4691 66.9378C25.905 68.3559 33.112 69.1368 40.7622 69.1368C48.4125 69.1368 55.6192 68.356 61.0553 66.9378C67.1572 65.346 70.2511 63.1921 70.2511 60.5359C70.2511 57.8798 67.1572 55.7257 61.0553 54.134ZM60.435 64.5598C55.1958 65.9265 48.2092 66.6795 40.7622 66.6795C33.3152 66.6795 26.3286 65.9265 21.0894 64.5598C15.2805 63.0445 13.7306 61.3174 13.7306 60.5357C13.7306 59.754 15.2805 58.0271 21.0894 56.5117C26.3286 55.1449 33.3152 54.392 40.7622 54.392C48.2089 54.392 55.1958 55.1448 60.435 56.5117C66.2437 58.027 67.7937 59.754 67.7937 60.5357C67.7937 61.3174 66.2437 63.0445 60.435 64.5598Z" fill="url(#paint1_linear_54_6618)"/>
<path d="M40.762 55.621C35.2857 55.621 26.0176 56.656 26.0176 60.5358C26.0176 64.4155 35.2857 65.4507 40.762 65.4507C46.2382 65.4507 55.5063 64.4155 55.5063 60.5358C55.5063 56.656 46.2382 55.621 40.762 55.621ZM49.5298 62.0777C47.1359 62.6682 44.022 62.9933 40.7618 62.9933C37.5016 62.9933 34.3877 62.6682 31.9938 62.0777C29.5579 61.4769 28.6746 60.7961 28.4962 60.5358C28.6746 60.2753 29.5579 59.5947 31.994 58.9939C34.3879 58.4035 37.5016 58.0783 40.762 58.0783C44.022 58.0783 47.1359 58.4035 49.5296 58.9939C51.9657 59.5947 52.849 60.2755 53.0274 60.5358C52.849 60.7961 51.9657 61.4768 49.5298 62.0777Z" fill="url(#paint2_linear_54_6618)"/>
<path d="M42.0336 59.3062H39.4619V61.7172H42.0336V59.3062Z" fill="url(#paint3_linear_54_6618)"/>
<path d="M40.748 1.60144H38.3369V32.3022H40.748V1.60144Z" fill="url(#paint4_linear_54_6618)"/>
<path d="M43.7105 33.4307L40.6727 35.7091V33.5527H38.2762V35.6211L35.3554 33.4307L33.8809 35.3964L39.5329 39.6355L45.1851 35.3964L43.7105 33.4307Z" fill="url(#paint5_linear_54_6618)"/>
<path d="M62.1964 14.0514L60.3222 15.3009V12.6246H57.9259V15.2106L56.1873 14.0514L54.8242 16.096L59.1917 19.0081L63.5595 16.096L62.1964 14.0514Z" fill="url(#paint6_linear_54_6618)"/>
<path d="M60.3584 1.60144H57.9473V11.4064H60.3584V1.60144Z" fill="url(#paint7_linear_54_6618)"/>
<path d="M79.3986 38.6256L77.5764 39.8403V37.2272H75.1801V39.8192L73.3895 38.6256L72.0264 40.6703L76.3942 43.582L80.7617 40.6703L79.3986 38.6256Z" fill="url(#paint8_linear_54_6618)"/>
<path d="M21.6495 14.0514L19.9042 15.2149V12.6246H17.5078V15.2965L15.6403 14.0514L14.2773 16.096L18.6448 19.0081L23.0125 16.096L21.6495 14.0514Z" fill="url(#paint9_linear_54_6618)"/>
<path d="M19.8525 1.60144H17.4414V11.4064H19.8525V1.60144Z" fill="url(#paint10_linear_54_6618)"/>
<path d="M76.3941 11.2426L72.708 9.39966V19.5193L75.18 20.7554V35.9492H77.5763V20.7712L80.08 19.5192V9.39966L76.3941 11.2426ZM77.6225 18.0006L76.3938 18.615L75.165 18.0006V13.3758L76.3938 13.9901L77.6225 13.3758V18.0006Z" fill="url(#paint11_linear_54_6618)"/>
<path d="M8.13391 38.6256L6.325 39.8314V37.2272H3.92875V39.8283L2.12484 38.6256L0.761719 40.6703L5.12937 43.582L9.49703 40.6703L8.13391 38.6256Z" fill="url(#paint12_linear_54_6618)"/>
<path d="M5.1293 11.2426L1.44336 9.39966V19.5193L3.92867 20.7622V35.949H6.32508V20.7645L8.81555 19.5193V9.39966L5.1293 11.2426ZM6.35805 18.0006L5.1293 18.615L3.90055 18.0006V13.3758L5.1293 13.9901L6.35805 13.3758V18.0006Z" fill="url(#paint13_linear_54_6618)"/>
</g>
<defs>
<linearGradient id="paint0_linear_54_6618" x1="1.36719" y1="63.5924" x2="80.1284" y2="63.5924" gradientUnits="userSpaceOnUse">
<stop stop-color="#A8CF2D"/>
<stop offset="1"/>
</linearGradient>
<linearGradient id="paint1_linear_54_6618" x1="11.2734" y1="60.5359" x2="70.2511" y2="60.5359" gradientUnits="userSpaceOnUse">
<stop stop-color="#A8CF2D"/>
<stop offset="1"/>
</linearGradient>
<linearGradient id="paint2_linear_54_6618" x1="26.0176" y1="60.5358" x2="55.5063" y2="60.5358" gradientUnits="userSpaceOnUse">
<stop stop-color="#A8CF2D"/>
<stop offset="1"/>
</linearGradient>
<linearGradient id="paint3_linear_54_6618" x1="39.4619" y1="60.5117" x2="42.0336" y2="60.5117" gradientUnits="userSpaceOnUse">
<stop stop-color="#A8CF2D"/>
<stop offset="1"/>
</linearGradient>
<linearGradient id="paint4_linear_54_6618" x1="38.3369" y1="16.9518" x2="40.748" y2="16.9518" gradientUnits="userSpaceOnUse">
<stop stop-color="#A8CF2D"/>
<stop offset="1"/>
</linearGradient>
<linearGradient id="paint5_linear_54_6618" x1="33.8809" y1="36.5331" x2="45.1851" y2="36.5331" gradientUnits="userSpaceOnUse">
<stop stop-color="#A8CF2D"/>
<stop offset="1"/>
</linearGradient>
<linearGradient id="paint6_linear_54_6618" x1="54.8242" y1="15.8164" x2="63.5595" y2="15.8164" gradientUnits="userSpaceOnUse">
<stop stop-color="#A8CF2D"/>
<stop offset="1"/>
</linearGradient>
<linearGradient id="paint7_linear_54_6618" x1="57.9473" y1="6.50394" x2="60.3584" y2="6.50394" gradientUnits="userSpaceOnUse">
<stop stop-color="#A8CF2D"/>
<stop offset="1"/>
</linearGradient>
<linearGradient id="paint8_linear_54_6618" x1="72.0264" y1="40.4046" x2="80.7617" y2="40.4046" gradientUnits="userSpaceOnUse">
<stop stop-color="#A8CF2D"/>
<stop offset="1"/>
</linearGradient>
<linearGradient id="paint9_linear_54_6618" x1="14.2773" y1="15.8164" x2="23.0125" y2="15.8164" gradientUnits="userSpaceOnUse">
<stop stop-color="#A8CF2D"/>
<stop offset="1"/>
</linearGradient>
<linearGradient id="paint10_linear_54_6618" x1="17.4414" y1="6.50394" x2="19.8525" y2="6.50394" gradientUnits="userSpaceOnUse">
<stop stop-color="#A8CF2D"/>
<stop offset="1"/>
</linearGradient>
<linearGradient id="paint11_linear_54_6618" x1="72.708" y1="22.6744" x2="80.08" y2="22.6744" gradientUnits="userSpaceOnUse">
<stop stop-color="#A8CF2D"/>
<stop offset="1"/>
</linearGradient>
<linearGradient id="paint12_linear_54_6618" x1="0.761719" y1="40.4046" x2="9.49703" y2="40.4046" gradientUnits="userSpaceOnUse">
<stop stop-color="#A8CF2D"/>
<stop offset="1"/>
</linearGradient>
<linearGradient id="paint13_linear_54_6618" x1="1.44336" y1="22.6743" x2="8.81555" y2="22.6743" gradientUnits="userSpaceOnUse">
<stop stop-color="#A8CF2D"/>
<stop offset="1"/>
</linearGradient>
<clipPath id="clip0_54_6618">
<rect width="80" height="80" fill="white" transform="translate(0.761719 0.883057)"/>
</clipPath>
</defs>
</svg>
